<?xml version="1.0" encoding="UTF-8"?><!-- bulb - &#xe640; -->
<svg xmlns="http://www.w3.org/2000/svg" viewBox="0 0 1024 1024" version="1.1" ><path d="M512 249.49999971a277.49999971 277.49999971 0 0 1 148.5 511.875l-0.03750029 0.30000058-35.62499971 119.62499942A52.49999971 52.49999971 0 0 1 573.23750029 924.49999971h-122.4a52.49999971 52.49999971 0 0 1-51.67500029-43.2l-35.58750029-119.62499942-0.07499971-0.3375A277.23750029 277.23750029 0 0 1 234.50000029 527.00000029C234.50000029 373.77500029 358.775 249.49999971 512 249.49999971z m-44.1 600.00000029h88.2l18.1125-61.01250029h-124.425L467.9 849.5zM512 324.50000029a202.53750029 202.53750029 0 0 0-79.12500029 388.98749971h158.175A202.53750029 202.53750029 0 0 0 512 324.50000029z m-356.24999971 150.03749971a37.50000029 37.50000029 0 1 1 0 74.99999971h-37.50000029a37.50000029 37.50000029 0 0 1 0-74.99999971h37.50000029z m749.99999971 0a37.50000029 37.50000029 0 1 1 0 74.99999971h-37.50000029a37.50000029 37.50000029 0 0 1 0-74.99999971h37.50000029zM206.93750029 207.38750029a37.50000029 37.50000029 0 0 1 53.02499942 0l26.51250058 26.51249971a37.53749971 37.53749971 0 0 1-53.02500029 53.06249971l-26.51249971-26.55a37.50000029 37.50000029 0 0 1 0-53.02499942z m556.83749971-0.26250029a37.50000029 37.50000029 0 0 1 53.02500029 53.02500029l-26.51250058 26.51249971a37.50000029 37.50000029 0 0 1-53.02499942-53.02500029l26.51249971-26.51249971zM511.81250029 80.93750029a37.50000029 37.50000029 0 0 1 37.49999942 37.49999942v37.50000029a37.50000029 37.50000029 0 0 1-74.99999971 0v-37.50000029a37.50000029 37.50000029 0 0 1 37.50000029-37.49999942z" fill="#15171F"></path></svg>