<?xml version="1.0" encoding="UTF-8"?><!-- notification-box - &#xe621; -->
<svg xmlns="http://www.w3.org/2000/svg" viewBox="0 0 1024 1024" version="1.1" ><path d="M490.666667 128a42.666667 42.666667 0 1 1 0 85.333333H213.333333a42.666667 42.666667 0 0 0-42.666666 42.666667v554.666667a42.666667 42.666667 0 0 0 42.666666 42.666666h554.666667a42.666667 42.666667 0 0 0 42.666667-42.666666v-277.333334a42.666667 42.666667 0 1 1 85.333333 0V810.666667a128 128 0 0 1-128 128H213.333333a128 128 0 0 1-128-128V256a128 128 0 0 1 128-128h277.333334z" fill="#15171F"></path><path d="M647.338667 135.338667a170.666667 170.666667 0 1 1 241.322666 241.28 170.666667 170.666667 0 0 1-241.322666-241.28z m180.992 60.330666a85.333333 85.333333 0 1 0-120.661334 120.661334 85.333333 85.333333 0 0 0 120.661334-120.661334z" fill="#15171F"></path></svg>